<?xml version="1.0" encoding="UTF-8" standalone="no"?>
<!DOCTYPE svg PUBLIC "-//W3C//DTD SVG 1.1//EN" "http://www.w3.org/Graphics/SVG/1.1/DTD/svg11.dtd">
<svg height="100%" stroke-miterlimit="10"
    style="fill-rule:nonzero;clip-rule:evenodd;stroke-linecap:round;stroke-linejoin:round;"
    version="1.1" viewBox="0 0 24 24" width="100%" xml:space="preserve"
    xmlns="http://www.w3.org/2000/svg" xmlns:xlink="http://www.w3.org/1999/xlink">
<defs/>
<g id="Senza-Titolo">
<path d="M2 6.25C2 4.45507 3.45507 3 5.25 3L18.75 3C20.5449 3 22 4.45507 22 6.25L22 12L20.5 12L20.5 6.25C20.5 5.2835 19.7165 4.5 18.75 4.5L5.25 4.5C4.2835 4.5 3.5 5.2835 3.5 6.25L3.5 15.75C3.5 16.7165 4.2835 17.5 5.25 17.5L11 17.5L11 19L5.25 19C3.45507 19 2 17.5449 2 15.75L2 6.25ZM14 13C12.8954 13 12 13.8954 12 15L12 20C12 21.1046 12.8954 22 14 22L21 22C22.1046 22 23 21.1046 23 20L23 15C23 13.8954 22.1046 13 21 13L14 13Z" fill="#b49563" fill-rule="nonzero" opacity="1" stroke="none"/>
<path d="M10.3783 7.36448C10.3783 7.81232 10.0152 8.17535 9.56739 8.17535C9.11957 8.17535 8.75652 7.81232 8.75652 7.36448C8.75652 6.91665 9.11957 6.55361 9.56739 6.55361C10.0152 6.55361 10.3783 6.91665 10.3783 7.36448ZM9.83768 7.36448C9.83768 7.21521 9.71664 7.09419 9.56739 7.09419C9.41813 7.09419 9.2971 7.21521 9.2971 7.36448C9.2971 7.51376 9.41813 7.63477 9.56739 7.63477C9.71664 7.63477 9.83768 7.51376 9.83768 7.36448ZM4.43187 6.55361C4.43187 5.65795 5.15795 4.93187 6.05361 4.93187L10.3783 4.93187C11.2739 4.93187 12 5.65795 12 6.55361L12 10.8783C12 11.7739 11.2739 12.5 10.3783 12.5L6.05361 12.5C5.15795 12.5 4.43187 11.7739 4.43187 10.8783L4.43187 6.55361ZM6.05361 5.47245C5.4565 5.47245 4.97245 5.9565 4.97245 6.55361L4.97245 10.8783C4.97245 11.0797 5.02754 11.2683 5.12347 11.4297L7.64761 8.94947C7.96309 8.63949 8.46876 8.63949 8.78425 8.94947L11.3084 11.4297C11.4043 11.2683 11.4594 11.0797 11.4594 10.8783L11.4594 6.55361C11.4594 5.9565 10.9754 5.47245 10.3783 5.47245L6.05361 5.47245ZM6.05361 11.9594L10.3783 11.9594C10.5778 11.9594 10.7647 11.9054 10.9252 11.8111L8.40535 9.33506C8.30021 9.23176 8.13165 9.23176 8.02649 9.33506L5.50667 11.8111C5.66712 11.9054 5.85406 11.9594 6.05361 11.9594Z" fill="#b49563" fill-rule="nonzero" opacity="1" stroke="none"/>
</g>
</svg>